<?xml version="1.0" encoding="utf-8"?>
<!-- Generator: Adobe Illustrator 24.1.1, SVG Export Plug-In . SVG Version: 6.00 Build 0)  -->
<svg version="1.1" xmlns="http://www.w3.org/2000/svg" xmlns:xlink="http://www.w3.org/1999/xlink" x="0px" y="0px"
	 viewBox="0 0 512 512" style="enable-background:new 0 0 512 512;" xml:space="preserve">
<style type="text/css">
	.st0{display:none;}
	.st1{display:inline;fill-rule:evenodd;clip-rule:evenodd;fill:#FFFFFF;}
	.st2{display:inline;opacity:0.8;fill-rule:evenodd;clip-rule:evenodd;fill:#FFFFFF;enable-background:new    ;}
	.st3{display:inline;opacity:0.2;fill:#FFFFFF;enable-background:new    ;}
	.st4{display:inline;fill:#FFFFFF;}
	.st5{fill:#FFFFFF;}
</style>
<g id="Layer_2">
</g>
<g id="Layer_1">
	<g id="css3" class="st0">
		<path id="Capa_1" class="st1" d="M88,111.6h336l-31.4,340.7L256,491l-136.6-37.8 M256,461.5L367.7,431l25.2-292.5L256,138.4v42.5
			H151.7l3.7,42.4H256v42.5h-96.9l3.7,42.5H256v66.4l-47.1-12.9l-2.7-33.2h-41.6l5.6,66.4l85.8,23.1L256,461.5z"/>
		<path id="Capa_4_copy" class="st2" d="M256,138.4l137.4,0.1l-25.1,293L256,462v-43.9l85.8-23.1l19.4-214.1H256L256,138.4z
			 M315.1,223.3l-3.7,42.6H256v-42.6H315.1z M307.7,308.2l-4.6,53.6L256,375.6v-67.4H307.7z"/>
		<path id="Capa_6" class="st3" d="M256,223.3v-42.4H151.7l3.7,42.4L256,223.3z"/>
		<path id="Capa_5" class="st3" d="M256,265.8v42.5h-93.2l-3.7-42.5H256z"/>
		<path id="Capa_7" class="st3" d="M164.6,328.6h41.6l2.7,33.2l47.1,12.9v43.4L170.2,395L164.6,328.6z"/>
		<path id="Capa_2" class="st4" d="M220,84.1h-49.8V20.4H220v21.2h-29.5v21.3H220V84.1z"/>
		<path id="Capa_3" class="st4" d="M280.9,20.4h-49.8V62h28.6v3.6h-28.6V85h49.8V42.6h-29.5v-3.7h29.5L280.9,20.4z"/>
		<path id="Capa_3_copy" class="st4" d="M341.8,20.4H292V62h28.6v3.6H292V85h49.8V42.6h-29.5v-3.7h29.5V20.4z"/>
	</g>
	<g>
		<path id="path1948_1_" class="st5" d="M253.5,42.4c-17.4,0.1-34.1,1.6-48.7,4.2c-43.1,7.6-51,23.6-51,53v38.9h101.9v13H153.8
			h-38.3c-29.6,0-55.6,17.8-63.7,51.7c-9.4,38.8-9.8,63.1,0,103.6c7.2,30.2,24.6,51.7,54.2,51.7h35v-46.6
			c0-33.6,29.1-63.3,63.7-63.3h101.8c28.3,0,51-23.3,51-51.8V99.5c0-27.6-23.3-48.4-51-53C289.1,43.6,270.9,42.3,253.5,42.4z
			 M198.4,73.6c10.5,0,19.1,8.7,19.1,19.5c0,10.7-8.6,19.4-19.1,19.4c-10.6,0-19.1-8.7-19.1-19.4C179.2,82.3,187.8,73.6,198.4,73.6z
			"/>
		<path id="path1950_1_" class="st5" d="M370.3,151.3v45.3c0,35.1-29.8,64.6-63.7,64.6H204.8c-27.9,0-51,23.9-51,51.8v97.1
			c0,27.6,24,43.9,51,51.8c32.3,9.5,63.2,11.2,101.8,0c25.7-7.4,51-22.4,51-51.8v-38.9H255.7v-13h101.8h51c29.6,0,40.7-20.7,51-51.7
			c10.6-31.9,10.2-62.6,0-103.6c-7.3-29.5-21.3-51.7-51-51.7L370.3,151.3z M313,397.1c10.6,0,19.1,8.7,19.1,19.4
			c0,10.7-8.6,19.5-19.1,19.5c-10.5,0-19.1-8.7-19.1-19.5C293.9,405.8,302.5,397.1,313,397.1z"/>
	</g>
</g>
</svg>
