<?xml version="1.0" encoding="utf-8"?>
<!-- Generator: Adobe Illustrator 24.1.1, SVG Export Plug-In . SVG Version: 6.00 Build 0)  -->
<svg version="1.1" id="Layer_1" xmlns="http://www.w3.org/2000/svg" xmlns:xlink="http://www.w3.org/1999/xlink" x="0px" y="0px"
	 viewBox="0 0 512 512" style="enable-background:new 0 0 512 512;" xml:space="preserve">
<style type="text/css">
	.st0{clip-path:url(#SVGID_2_);}
	.st1{fill-rule:evenodd;clip-rule:evenodd;fill:#FFFFFF;}
</style>
<g>
	<g>
		<defs>
			<rect id="SVGID_1_" x="67.2" y="130.8" width="411.6" height="247"/>
		</defs>
		<clipPath id="SVGID_2_">
			<use xlink:href="#SVGID_1_"  style="overflow:visible;"/>
		</clipPath>
		<g class="st0">
			<path class="st1" d="M273,130.8c-54.9,0-89.2,27.4-102.9,82.3c20.6-27.4,44.6-37.7,72-30.9c15.7,3.9,26.8,15.3,39.2,27.8
				c20.2,20.5,43.5,44.2,94.5,44.2c54.9,0,89.2-27.4,102.9-82.3c-20.6,27.4-44.6,37.7-72,30.9c-15.7-3.9-26.8-15.3-39.2-27.8
				C347.4,154.5,324,130.8,273,130.8z M170.1,254.2c-54.9,0-89.2,27.4-102.9,82.3c20.6-27.4,44.6-37.7,72-30.9
				c15.7,3.9,26.8,15.3,39.2,27.8c20.2,20.5,43.5,44.2,94.5,44.2c54.9,0,89.2-27.4,102.9-82.3c-20.6,27.4-44.6,37.7-72,30.9
				c-15.7-3.9-26.8-15.3-39.2-27.8C244.5,277.9,221.1,254.2,170.1,254.2z"/>
		</g>
	</g>
</g>
</svg>
