<?xml version="1.0" encoding="utf-8"?>
<!-- Generator: Adobe Illustrator 24.1.1, SVG Export Plug-In . SVG Version: 6.00 Build 0)  -->
<svg version="1.1" id="Layer_1" xmlns="http://www.w3.org/2000/svg" xmlns:xlink="http://www.w3.org/1999/xlink" x="0px" y="0px"
	 viewBox="0 0 512 512" style="enable-background:new 0 0 512 512;" xml:space="preserve">
<style type="text/css">
	.st0{fill:#FFFFFF;}
</style>
<g>
	<path class="st0" d="M415.4,57.9H96.6c-21.4,0-38.7,17.3-38.7,38.7v318.9c0,21.4,17.3,38.7,38.7,38.7h318.9
		c21.4,0,38.7-17.3,38.7-38.7V96.6C454.1,75.2,436.8,57.9,415.4,57.9z M287.7,277.7H238v141.6h-39.4V277.7h-49.5v-31.8h138.5V277.7z
		 M416.1,394.2c-3.7,6.6-8.7,11.9-15,16c-6.3,4.1-13.6,7-22,8.8c-8.4,1.8-17.2,2.7-26.5,2.7c-9.5,0-18.6-0.8-27.2-2.4
		s-16.1-4-22.3-7.3v-38.7h0c7,5.9,14.7,10.3,22.9,13.3c8.2,2.9,16.6,4.4,25,4.4c4.9,0,9.2-0.4,12.9-1.3c3.7-0.9,6.7-2.1,9.2-3.7
		s4.3-3.4,5.5-5.6s1.8-4.5,1.8-7c0-3.4-1-6.4-2.9-9.1c-1.9-2.7-4.6-5.1-7.9-7.4c-3.4-2.3-7.3-4.4-11.9-6.5
		c-4.6-2.1-9.6-4.2-14.9-6.4c-13.6-5.7-23.7-12.6-30.3-20.7c-6.7-8.2-10-18-10-29.5c0-9,1.8-16.8,5.5-23.3c3.6-6.5,8.6-11.8,14.8-16
		c6.3-4.2,13.5-7.3,21.7-9.3c8.2-2,17-3,26.2-3c9,0,17.1,0.5,24,1.6c7,1.1,13.4,2.8,19.3,5v36.2c-2.9-2-6.1-3.8-9.5-5.3
		c-3.4-1.5-7-2.8-10.6-3.8c-3.6-1-7.2-1.8-10.8-2.2c-3.6-0.5-7-0.7-10.2-0.7c-4.4,0-8.5,0.4-12.1,1.3c-3.6,0.8-6.7,2-9.2,3.6
		c-2.5,1.5-4.4,3.4-5.8,5.5c-1.4,2.1-2.1,4.5-2.1,7.2c0,2.9,0.8,5.5,2.3,7.8c1.5,2.3,3.7,4.5,6.5,6.5c2.8,2.1,6.3,4.1,10.3,6.1
		c4,2,8.6,4,13.7,6.1c6.9,2.9,13.2,6,18.7,9.3c5.5,3.3,10.3,7,14.2,11.1c4,4.1,7,8.8,9.1,14.1c2.1,5.3,3.1,11.4,3.1,18.5
		C421.6,379.5,419.8,387.6,416.1,394.2z"/>
</g>
</svg>
