<?xml version="1.0" encoding="utf-8"?>
<!-- Generator: Adobe Illustrator 24.1.1, SVG Export Plug-In . SVG Version: 6.00 Build 0)  -->
<svg version="1.1" id="Layer_1" xmlns="http://www.w3.org/2000/svg" xmlns:xlink="http://www.w3.org/1999/xlink" x="0px" y="0px"
	 viewBox="0 0 512 512" style="enable-background:new 0 0 512 512;" xml:space="preserve">
<style type="text/css">
	.st0{clip-path:url(#SVGID_2_);}
	.st1{fill:#FFFFFF;}
</style>
<g>
	<g>
		<defs>
			<rect id="SVGID_1_" x="65.7" y="47" width="414.5" height="414.5"/>
		</defs>
		<clipPath id="SVGID_2_">
			<use xlink:href="#SVGID_1_"  style="overflow:visible;"/>
		</clipPath>
		<g class="st0">
			<path class="st1" d="M472.5,235.8l-181-181c-10.4-10.4-27.3-10.4-37.8,0c0,0,0,0,0,0l-37.6,37.6l47.7,47.7
				c11.4-3.9,24.1-0.9,32.6,7.6c8.6,8.6,11.5,21.3,7.5,32.8l46,45.9c11.5-4,24.2-1.1,32.8,7.5c12.4,12.4,12.4,32.5,0,44.9
				c0,0,0,0,0,0c-12.4,12.4-32.5,12.4-45,0c-9.1-9.1-11.8-22.7-6.9-34.6L288,201.5v112.8c15.7,7.8,22.2,26.8,14.4,42.5
				c-1.5,3.1-3.6,5.9-6,8.4c-12.4,12.4-32.5,12.4-44.9,0c0,0,0,0,0,0c-12.4-12.4-12.4-32.5,0-44.9c0,0,0,0,0,0c3-3,6.5-5.3,10.4-6.9
				V199.5c-16.2-6.7-24-25.3-17.3-41.5c0,0,0-0.1,0.1-0.1l-47-47L73.6,234.9c-10.4,10.4-10.4,27.3,0,37.8l181,181
				c10.4,10.4,27.3,10.4,37.8,0l180.2-180.2C482.9,263.1,482.9,246.2,472.5,235.8"/>
		</g>
	</g>
</g>
</svg>
